<svg width="358" height="313" viewBox="0 0 358 313" fill="none" xmlns="http://www.w3.org/2000/svg">
<path fill-rule="evenodd" clip-rule="evenodd" d="M20 0C8.9543 0 0 8.95431 0 20V293C0 304.046 8.95431 313 20 313H338C349.046 313 358 304.046 358 293V20C358 8.95431 349.046 0 338 0H20ZM38 20.494C28.0589 20.494 20 28.553 20 38.4941V274.046C20 283.987 28.0589 292.046 38 292.046H319.711C329.652 292.046 337.711 283.987 337.711 274.046V38.494C337.711 28.5529 329.652 20.494 319.711 20.494H38Z" fill="url(#paint0_linear_1_431)"/>
<defs>
<linearGradient id="paint0_linear_1_431" x1="0" y1="313" x2="358" y2="313" gradientUnits="userSpaceOnUse">
<stop stop-color="#D20653"/>
<stop offset="1" stop-color="#FF951D"/>
</linearGradient>
</defs>
</svg>
